<!-- icon666.com - MILLIONS vector ICONS FREE --><svg viewBox="-80 0 496 496" xmlns="http://www.w3.org/2000/svg"><path d="m328 248c4.398438 0 8 3.601562 8 8v24.015625c0 4.398437-3.601562 8-8 8h-127.921875c-4.398437 0-8-3.601563-8-8v-24.015625c0-4.398438 3.601563-8 8-8zm0 0" fill="#ccd1d9"/><path d="m328 248h-16.015625c4.398437 0 8 3.601562 8 8v24.015625c0 4.398437-3.601563 8-8 8h16.015625c4.398438 0 8-3.601563 8-8v-24.015625c0-4.398438-3.601562-8-8-8zm0 0" fill="#aab2bd"/><path d="m336 272v192c0 17.679688-14.320312 32-32 32h-79.921875c-17.679687 0-32-14.320312-32-32v-192zm0 0" fill="#656d78"/><path d="m319.984375 272v192c0 17.679688-14.320313 32-32 32h16.015625c17.679688 0 32-14.320312 32-32v-192zm0 0" fill="#545c66"/><path d="m112 0c0 44.238281-35.761719 80-80 80 0-44.238281 35.839844-80 80-80zm0 0" fill="#da4453"/><path d="m112 0v159.921875h-80v-79.921875c44.238281 0 80-35.761719 80-80zm0 0" fill="#ed5565"/><path d="m16 167.921875c0-4.402344 3.601562-8 8-8h16 80c4.398438 0 8 3.597656 8 8v128.09375c0 4.398437-3.601562 8-8 8h-96c-4.398438 0-8-3.601563-8-8zm0 0" fill="#545c66"/><path d="m120 159.921875h-16.015625c4.398437 0 8 3.597656 8 8v128.09375c0 4.398437-3.601563 8-8 8h16.015625c4.398438 0 8-3.601563 8-8v-128.09375c0-4.402344-3.601562-8-8-8zm0 0" fill="#434a54"/><path d="m143.992188 296.007812c0-4.421874-3.578126-8-8-8h-127.984376c-4.421874 0-7.9999995 3.578126-7.9999995 8h-.0078125v167.992188c0 17.679688 14.320312 32 32 32h80c17.679688 0 32-14.320312 32-32zm0 0" fill="#656d78"/><path d="m143.992188 296.007812c0-4.421874-3.578126-8-8-8h-16.015626c4.421876 0 8 3.578126 8 8h.007813v167.992188c0 17.679688-14.320313 32-32 32h16.015625c17.679688 0 32-14.320312 32-32zm0 0" fill="#545c66"/></svg>