<!-- icon666.com - MILLIONS vector ICONS FREE --><svg id="Layer_1" viewBox="0 0 128 128" xmlns="http://www.w3.org/2000/svg" data-name="Layer 1"><path d="m39.215 88.895h5.393.049 66.985a3 3 0 0 0 2.9-2.233l12.021-45.449a3 3 0 0 0 -2.881-3.768l-84.33-.525-3.759-22.055a3 3 0 0 0 -2.958-2.5h-28.299a3 3 0 0 0 0 6h25.764l11 64.526h-1.885a11.8 11.8 0 0 0 -11.79 11.79 11.8 11.8 0 0 0 11.79 11.8h4.112a11.733 11.733 0 0 0 22.888 0h15.263a11.733 11.733 0 0 0 22.888 0h9.619a3 3 0 1 0 0-6h-9.827a11.74 11.74 0 0 0 -22.473 0h-15.677a11.74 11.74 0 0 0 -22.473 0h-4.32a5.795 5.795 0 0 1 0-11.59zm1.161-45.968 79.4.5-10.443 39.473h-62.144zm52.546 55.218a5.743 5.743 0 1 1 -5.743 5.743 5.75 5.75 0 0 1 5.743-5.743zm-38.15 0a5.743 5.743 0 1 1 -5.744 5.743 5.749 5.749 0 0 1 5.743-5.743z"/><path d="m55.777 55.429h8.953a3 3 0 0 0 0-6h-8.953a3 3 0 0 0 0 6z"/><path d="m74.954 55.429h8.954a3 3 0 0 0 0-6h-8.954a3 3 0 0 0 0 6z"/><path d="m94.131 55.429h8.954a3 3 0 0 0 0-6h-8.954a3 3 0 0 0 0 6z"/><path d="m55.777 66.084h8.953a3 3 0 0 0 0-6h-8.953a3 3 0 1 0 0 6z"/><path d="m74.954 66.084h8.954a3 3 0 1 0 0-6h-8.954a3 3 0 1 0 0 6z"/><path d="m94.131 66.084h8.954a3 3 0 0 0 0-6h-8.954a3 3 0 1 0 0 6z"/><path d="m55.777 76.738h8.953a3 3 0 0 0 0-6h-8.953a3 3 0 1 0 0 6z"/><path d="m74.954 76.738h8.954a3 3 0 0 0 0-6h-8.954a3 3 0 0 0 0 6z"/><path d="m94.131 76.738h8.954a3 3 0 0 0 0-6h-8.954a3 3 0 0 0 0 6z"/></svg>