<!-- icon666.com - MILLIONS vector ICONS FREE --><svg id="Layer_1" viewBox="0 0 512 512" xmlns="http://www.w3.org/2000/svg"><g fill="#ccd3df"><path d="m92.26 240.75 16.35 12.72-3.99 4.99c-3.52 4.49-10.01 5.27-14.5 1.75-2.6-2.04-3.95-5.07-3.95-8.13 0-2.23.72-4.48 2.2-6.37z" fill="#ccd3df" style="fill: rgb(148, 16, 29);"></path><path d="m75.45 227.69-3.88 4.84c-3.52 4.49-10.01 5.27-14.5 1.75-2.59-2.04-3.95-5.07-3.95-8.13 0-2.23.72-4.48 2.2-6.37l3.78-4.8z" fill="#ccd3df" style="fill: rgb(148, 16, 29);"></path><path d="m26.78 188.11-4.5 5.74c-1.48 1.89-2.2 4.14-2.2 6.37 0 3.06 1.35 6.09 3.95 8.13 4.48 3.52 10.97 2.74 14.49-1.75l3.7-4.74z" fill="#ccd3df" style="fill: rgb(148, 16, 29);"></path></g><path d="m368.19 280.51c-10.33-15.65-20.92-34.52-31.08-54.23-12.071-23.413-23.616-48.099-34.16-71.89-7.39-16.68-13.71-31.64-18.43-43.06-41.52 46.79-77.89 37.18-105.82 11.11l-.01.01s-25.13 85.07 48.57 84.8c91.51-.34 63.47 69.13 100.29 112.3 10.13 4.79 20.12 9.26 29.7 13.21-9.67-17.2-6.26-39.65 10.94-52.25z" fill="#527cce"></path><path d="m337.11 226.28-12.93 5.59c-6.28 2.72-13.58-.17-16.3-6.45-.69-1.6-1.02-3.27-1.02-4.92 0-4.79 2.8-9.35 7.48-11.38l11.65-5.04c3.62 7.43 7.34 14.88 11.12 22.2z" fill="#5ac5df"></path><path d="m313.16 176.99-17.69 7.65c-6.28 2.72-13.58-.17-16.3-6.46-.69-1.6-1.02-3.27-1.02-4.91 0-4.79 2.8-9.36 7.48-11.38l17.32-7.5c3.21 7.25 6.63 14.84 10.21 22.6z" fill="#5ac5df"></path><path d="m429.67 340.71c2.35 2.55 4.36 5.34 6.02 8.28-12.52.52-21.4 2.78-46.78-4.77-4.86-1.45-9.97-3.15-15.27-5.08-5.29-1.92-10.77-4.06-16.39-6.38-9.67-17.2-6.26-39.65 10.94-52.25 3.11 4.71 6.19 9.12 9.23 13.18 23.6 31.52 30.86 23.86 52.25 47.02z" fill="#dd5e6a" style="fill: rgb(192, 2, 21);"></path><path d="m284.51 111.32.01.01c-41.52 46.79-77.89 37.18-105.82 11.11-23.21-21.64-40.6-54.63-50.3-76.1-1.4-3.1-1.75-6.33-1.24-9.36 1.17-7.06 6.96-13.01 14.85-13.61.45-.03.89-.05 1.34-.05 5.99 0 12.02 2.97 14.2 8.52 33.24 84.64 89.22 63.21 96.24 62.14 13.02-1.99 25.69 5.18 30.72 17.34z" fill="#dd5e6a" style="fill: rgb(192, 2, 21);"></path><path d="m227.26 207.25c-73.7.27-48.57-84.8-48.57-84.8l.01-.01c-23.21-21.64-40.6-54.63-50.3-76.1-1.4-3.1-1.75-6.33-1.24-9.36 0 0-17.51 13.44-35.66 29.54 0 0 55.14 56.08 5.35 123.1 24.1 17.45 54.47 35.76 83.09 61.72l136.41 62.82c3.75 1.83 7.48 3.63 11.2 5.39-36.82-43.17-8.78-112.64-100.29-112.3z" fill="#7ca1b1"></path><path d="m91.5 66.52s55.14 56.08 5.35 123.1c-30.86-22.34-51.44-43.26-44.92-77.01 2.05-10.6 21.14-29.72 39.57-46.09z" fill="#527cce"></path><path d="m96.85 189.62c-30.86-22.34-51.44-43.26-44.92-77.01 0 0-52.57 41.11-25.15 75.5 2.38 2.98 5.35 5.9 9.01 8.75l74.33 57.78c2.03 1.44 4.38 2.14 6.7 2.14 3.55 0 7.05-1.62 9.32-4.68 4.17-5.61 12.3-6.29 17.33-1.45 4.58 4.4 10.66 10.23 17.95 17.09 4.94-4.72 7.9-8.84 9.15-10.11 2.74-2.77 5.93-4.88 9.37-6.29-28.62-25.96-58.99-44.27-83.09-61.72z" fill="#b0b5ca" style="fill: rgb(89, 13, 13);"></path><g><path d="m471.39 446.91-4.23-8.77-18.27 8.15 3.82 9.41c1.76 3.74 5.48 5.94 9.35 5.94 1.47 0 2.97-.32 4.39-.99 5.16-2.43 7.37-8.58 4.94-13.74z" fill="#ccd3df" style="fill: rgb(148, 16, 29);"></path><path d="m458.89 350.81c15.39 2.9 27.91 13.76 33.67 27.55-2.06 17.48-14.92 30.21-34.39 39.28l-.03-.06c-5.24-9.22-12.44-15.62-20.54-19.81-8.09-4.2-17.1-6.19-25.96-6.6-.19-.01-.37-.02-.56-.03-26.77-1.48-45.35-26.38-37.44-52 5.3 1.93 10.41 3.63 15.27 5.08 25.38 7.55 34.26 5.29 46.78 4.77 6.09-.25 13.05-.09 23.2 1.82z" fill="#fd8087" style="fill: rgb(182, 2, 11);"></path><path d="m458.14 417.58.03.06c-57.72 26.89-173.58 21.54-238.75 12.08-43.99-6.38-84.38-2.13-117.79-1.72 0-83.49-77.7-95.62-77.7-95.62 4.95-23.75 11-44.98 11-44.98 1.39 2.73 3.6 5.12 6.57 6.77 20.6 11.45 54.25 27.57 85.78 31.1v.01s30.54 83.27 89.54 39.1c90.66-67.87 98.11 59.27 194.26 26.76.19.01.37.02.56.03 8.86.41 17.87 2.4 25.96 6.6 8.1 4.19 15.3 10.59 20.54 19.81z" fill="#7ca1b1"></path><g fill="#ccd3df"><path d="m432.18 461.03c.51 5.68-3.68 10.7-9.36 11.2-.31.03-.63.04-.94.04-5.28 0-9.79-4.03-10.27-9.4l-.62-9.34v-.01c7.05-1.13 13.85-2.47 20.31-4.05v.01z" fill="#ccd3df" style="fill: rgb(148, 16, 29);"></path><path d="m391.55 467.56c.29 5.69-4.1 10.54-9.79 10.83-.17.01-.34.01-.52.01-5.47 0-10.04-4.29-10.31-9.81l-.41-10.79v-.01c7-.41 13.9-.96 20.64-1.67v.01z" fill="#ccd3df" style="fill: rgb(148, 16, 29);"></path><path d="m348.59 458.67v.01l-.16 9.45c-.15 5.7-4.89 10.2-10.59 10.05-5.61-.15-10.05-4.75-10.05-10.32v-.28l.18-8.74v-.01c6.88.05 13.77 0 20.62-.16z" fill="#ccd3df" style="fill: rgb(148, 16, 29);"></path><path d="m306.6 458.44-.16 8.58c-.15 5.7-4.89 10.2-10.59 10.05-5.61-.15-10.05-4.74-10.05-10.31v-.28l.18-8.89v-.01c6.79.35 13.67.64 20.62.86z" fill="#ccd3df" style="fill: rgb(148, 16, 29);"></path></g><path d="m373.64 339.14c-5.29-1.92-10.77-4.06-16.39-6.38-9.58-3.95-19.57-8.42-29.7-13.21-3.72-1.76-7.45-3.56-11.2-5.39-23.654-11.599-47.63-24.533-70.29-37.35-15.88-8.98-29.87-17.22-40.48-23.57-5.42 62.31-40.33 76.29-78.3 72.03v.01s30.54 83.27 89.54 39.1c90.66-67.87 98.11 59.27 194.26 26.76-26.77-1.48-45.35-26.38-37.44-52z" fill="#5b80dd"></path><path d="m264.61 456.28v.01l-.16 9.62c-.15 5.7-4.89 10.2-10.59 10.05-5.61-.15-10.05-4.74-10.05-10.31v-.28l.32-10.69c6.6.57 13.45 1.11 20.48 1.6z" fill="#ccd3df" style="fill: rgb(148, 16, 29);"></path><path d="m179.94 251.34c8.17-3.38 17.68-2.87 25.64 1.9-5.42 62.31-40.33 76.29-78.3 72.03-31.53-3.53-65.18-19.65-85.78-31.1-2.97-1.65-5.18-4.04-6.57-6.77-3.28-6.36-2.18-14.6 3.81-19.79 3.06-2.65 7.05-4.28 10.96-4.28 2.29 0 4.55.56 6.56 1.82 57.83 36.06 90.38 16.68 105.16 2.59 4.94-4.72 7.9-8.84 9.15-10.11 2.74-2.77 5.93-4.88 9.37-6.29z" fill="#fd8087" style="fill: rgb(182, 2, 11);"></path><path d="m101.63 428c-38.09.47-67.09-4.06-81.98-35.03-4.68-9.73-.77-36.46 4.28-60.59 0 0 77.7 12.13 77.7 95.62z" fill="#5b80dd"></path><g fill="#ccd3df"><path d="m128.44 469.78-.17 8.3v.28c0 5.57 4.44 10.17 10.05 10.32 5.7.15 10.44-4.35 10.59-10.05l.16-8.4z" fill="#ccd3df" style="fill: rgb(148, 16, 29);"></path><path d="m86.44 468.87-.16 8.11v.28c0 5.57 4.44 10.16 10.05 10.31 5.7.15 10.44-4.35 10.59-10.05l.16-8.2v-.01l-20.64-.45z" fill="#ccd3df" style="fill: rgb(148, 16, 29);"></path><path d="m44.47 466.57-.18 7.3v.28c0 5.57 4.44 12.16 10.05 12.31 5.7.15 10.44-4.35 10.59-10.05l.16-8.01-20.62-1.84z" fill="#ccd3df" style="fill: rgb(148, 16, 29);"></path></g></g><path d="m316.35 314.16-7.04 12.19c-3.42 5.93-11.01 7.96-16.94 4.54-3.97-2.29-6.2-6.46-6.2-10.75 0-2.1.54-4.24 1.67-6.19l6.34-10.98c7.35 3.8 14.77 7.56 22.17 11.19z" fill="#5ac5df"></path><path d="m267.73 288.86-9.63 16.69c-3.43 5.93-11.01 7.96-16.94 4.54-3.98-2.29-6.2-6.46-6.2-10.74 0-2.11.53-4.24 1.66-6.19l9.44-16.35c6.91 3.91 14.17 7.96 21.67 12.05z" fill="#5ac5df"></path><path d="m492.56 378.36c-2.06 17.48-14.92 30.21-34.39 39.28-57.72 26.89-173.58 21.54-238.75 12.08-43.99-6.38-84.38-2.13-117.79-1.72-38.09.47-67.09-4.06-81.98-35.03 0 0-17.68 64.34 24.82 75.59 3.68.98 7.82 1.56 12.46 1.66l94.12 2.05c3.15-.07 5.99-1.39 8.04-3.48s3.31-4.95 3.31-8.11c0-6.98 6.12-12.38 13.04-11.5 14.24 1.82 39.01 4.94 68.69 7.5 61.804 4.707 126.256 8.445 187.17-5.21 12.561-3.046 25.123-7.296 35.86-13.33 15.47-8.71 25.75-20.45 28.29-36.06 1.34-8.23.18-16.39-2.89-23.72z" fill="#b0b5ca" style="fill: rgb(89, 13, 13);"></path><path d="m66.5 305.17c-2.97-1.65-5.18-4.04-6.57-6.77-3.28-6.36-2.18-14.6 3.81-19.79 2.622-2.271 5.928-3.784 9.28-4.173-5.335-2.574-10.917-5.643-16.76-9.287-2.01-1.26-4.27-1.82-6.56-1.82-3.91 0-7.9 1.63-10.96 4.28-5.99 5.19-7.09 13.43-3.81 19.79 1.39 2.73 3.6 5.12 6.57 6.77 10.804 6.005 25.199 13.292 40.993 19.376-5.89-2.899-11.285-5.76-15.993-8.376z" fill="#d8646f" style="fill: rgb(159, 9, 24);"></path><path d="m53.93 340.38c2.913-13.975 6.205-27.072 8.423-35.49-7.8-3.686-14.878-7.399-20.853-10.72-2.97-1.65-5.18-4.04-6.57-6.77 0 0-6.05 21.23-11 44.98 0 0 13.611 2.129 29.439 10.72.185-.909.372-1.817.561-2.72z" fill="#5a818e" style="fill: rgb(129, 9, 27);"></path><path d="m49.65 400.97c-4.505-9.366-1.05-34.482 3.719-57.87-15.828-8.591-29.439-10.72-29.439-10.72-5.05 24.13-8.96 50.86-4.28 60.59 11.098 23.083 30.039 31.474 54.736 34.058-10.341-5.293-18.699-13.502-24.736-26.058z" fill="#4369b5"></path><path d="m46.024 419.821c-11.096-5.253-20.023-13.641-26.374-26.851 0 0-17.68 64.34 24.82 75.59 3.68.98 7.82 1.56 12.46 1.66l26.013.567c-3.06-.559-5.883-.537-8.473-1.227-24.016-6.357-28.814-30.666-28.446-49.739z" fill="#8992ad" style="fill: rgb(137, 16, 22);"></path><path d="m459.815 345.897c-9.06-1.707-15.676-2.079-21.365-1.989-1.519-2.34-3.228-4.549-5.111-6.588-9.65-10.45-16.532-14.892-23.188-19.188-8.147-5.258-15.842-10.225-28.728-27.437-34.921-46.647-76.174-142.316-92.289-181.283-5.931-14.343-20.777-22.719-36.099-20.378-9.211 1.874-21.372 6.148-40.321-.074-21.053-7.382-38.047-27.214-50.51-58.947-2.96-7.538-11.422-12.315-20.567-11.63-6.919.521-13.164 4.393-16.705 10.357-1.009 1.7-1.755 3.514-2.253 5.382-11.71 9.067-68.142 53.632-75.155 75.628-6.466 5.38-33.702 29.646-33.664 56.639.011 7.765 2.255 14.985 6.661 21.603l-2.177 2.777c-5.216 6.648-4.051 16.301 2.597 21.517 2.799 2.196 6.13 3.261 9.44 3.261 4.551 0 9.061-2.014 12.087-5.87l.628-.805 8.967 6.969-.672.856c-5.216 6.648-4.052 16.301 2.597 21.517 2.804 2.2 6.142 3.265 9.454 3.265 4.542 0 9.035-2.002 12.035-5.827l.796-.995 8.955 6.961-.791 1.007c-2.527 3.221-3.649 7.233-3.158 11.297s2.534 7.694 5.754 10.221c2.804 2.2 6.143 3.265 9.455 3.265 4.541 0 9.033-2.001 12.032-5.824l1.161-1.45c7.007 3.334 15.707 1.362 20.473-5.054 1.147-1.544 2.833-2.482 4.747-2.642 1.907-.164 3.722.485 5.104 1.813 4.02 3.863 8.652 8.306 13.987 13.353-4.933 4.007-11.323 7.988-19.387 10.498-21.303 6.629-46.771.844-75.698-17.197-6.871-4.284-16.513-3.081-23.445 2.93-5.244 4.544-7.948 11.376-7.233 18.275.204 1.966.687 3.867 1.401 5.663-3.992 14.259-22.715 83.688-15.229 105.527-1.985 8.19-9.368 43.904 6.753 65.542 4.639 6.226 10.745 10.682 18.226 13.368l-.088 3.528c-.222 8.447 6.469 15.5 14.916 15.723.139.004.276.006.415.006 3.939 0 7.667-1.485 10.537-4.207 2.97-2.817 4.665-6.623 4.772-10.721l.026-1.03 11.352.247-.029 1.088c-.222 8.448 6.469 15.501 14.916 15.723.139.004.276.006.415.006 3.939 0 7.667-1.485 10.537-4.207 2.97-2.817 4.665-6.623 4.773-10.725l.03-1.218 11.354.247-.034 1.28c-.108 4.092 1.384 7.981 4.201 10.951s6.623 4.665 10.715 4.772c.137.004.272.005.408.005 8.265 0 15.096-6.611 15.315-14.936l.042-1.79c7.624-1.494 13.443-8.27 13.443-16.271 0-1.923.794-3.682 2.235-4.951 1.438-1.267 3.278-1.832 5.179-1.589 13.151 1.675 36.184 4.607 64.148 7.119l-.147 3.974c-.108 4.092 1.384 7.981 4.201 10.951s6.623 4.665 10.715 4.772c.137.004.272.005.408.005 8.265 0 15.096-6.611 15.316-14.954l.047-2.366c3.74.245 7.529.475 11.355.688l-.053 2.01c-.222 8.447 6.469 15.5 14.916 15.723.139.004.276.006.415.006 3.939 0 7.667-1.485 10.537-4.207 2.97-2.817 4.665-6.623 4.772-10.731l.036-1.55c3.774.095 7.563.166 11.358.212l-.044 1.654c-.222 8.447 6.469 15.501 14.917 15.724.138.004.275.006.413.006 3.94 0 7.668-1.485 10.538-4.208 2.97-2.817 4.665-6.623 4.773-10.745l.054-2.677c4.178-.124 8.269-.287 12.271-.488l.176 3.774c.408 8.182 7.194 14.562 15.297 14.562.256 0 .514-.006.772-.02 4.089-.204 7.853-1.988 10.6-5.023s4.147-6.958 3.945-11.008l-.201-4.769c3.456-.402 6.825-.842 10.112-1.318l.173 2.049c.71 7.956 7.414 13.963 15.254 13.963.454 0 .913-.02 1.374-.062 8.417-.751 14.653-8.211 13.899-16.645l-.495-5.335c3.235-.86 6.354-1.77 9.347-2.733l2.066 5.086c.034.083.07.166.108.248 2.609 5.543 8.134 8.798 13.89 8.797 2.184 0 4.401-.469 6.503-1.458 7.646-3.599 10.938-12.748 7.317-20.439l-2.259-4.675c15.35-9.693 24.296-22.095 26.748-37.178 2.069-12.728-1.08-25.714-8.867-36.566-7.729-10.77-18.988-18.021-31.704-20.417zm-29.398 8.404c7.619-.502 14.814-.977 27.546 1.423 13.27 2.5 24.097 11.741 29.432 23.431-1.51 9.61-6.783 17.781-16.102 24.932-3.339 2.562-7.131 4.913-11.299 7.078-10.368-15.2-27.266-24.036-48.12-24.991l-.518-.026c-11.632-.643-21.983-6.298-28.399-15.515-5.089-7.31-7.065-16.166-5.706-24.924 3.919 1.354 7.32 2.439 10.234 3.306 22.329 6.645 32.803 5.954 42.932 5.287zm-199.861-50.444c1.203 4.489 4.082 8.24 8.105 10.563 2.733 1.578 5.719 2.327 8.669 2.327 6.016 0 11.876-3.12 15.095-8.694l7.166-12.413c6.123 3.322 11.993 6.447 17.622 9.393l-3.707 6.42c-4.796 8.307-1.94 18.967 6.367 23.764 4.032 2.332 8.743 2.936 13.201 1.738 4.488-1.203 8.24-4.081 10.563-8.105l4.701-8.143c20.695 9.977 36.939 16.837 49.368 21.54-2.38 11.905.089 24.108 7.043 34.099 4.286 6.158 9.94 11.053 16.459 14.452-31.528 4.291-51.76-11.334-71.42-26.528-26.891-20.782-54.695-42.272-105.965-3.893-14.205 10.633-27.696 14.167-40.1 10.499-19.737-5.838-32.856-28.246-38.537-40.011 13.845.554 27.117-1.54 38.646-7.662 19.699-10.463 31.744-31.195 35.864-61.686 10.326 6.135 20.146 11.852 29.497 17.189l-6.9 11.952c-2.324 4.024-2.941 8.712-1.738 13.201zm10.398-8.201 6.939-12.019c4.419 2.489 8.727 4.89 12.923 7.202l-7.051 12.213c-2.04 3.531-6.572 4.745-10.104 2.707-3.485-1.917-4.766-6.701-2.707-10.104zm51.212 20.797 3.936-6.817c4.583 2.349 8.991 4.57 13.23 6.669l-4.356 7.544c-.988 1.711-2.583 2.935-4.491 3.446-1.911.51-3.902.249-5.613-.739-3.532-2.039-4.746-6.572-2.707-10.104zm81.251-19.765c13.96 18.648 22.78 24.34 31.31 29.846 6.414 4.14 12.473 8.051 21.264 17.57.129.139.247.288.374.429-8.579.475-17.832.311-36.028-5.104-9.064-2.697-19.034-6.335-29.528-10.624-7.077-14.018-4.409-30.271 6.36-40.881 2.341 3.427 4.425 6.329 6.249 8.764zm-43.23-72.861-7.995 3.458c-1.813.784-3.823.815-5.66.088-1.836-.728-3.28-2.127-4.064-3.94s-.815-3.823-.088-5.66c.728-1.836 2.127-3.28 3.94-4.064l7.224-3.125c2.278 4.619 4.493 9.031 6.644 13.244zm-23.759-49.375-12.943 5.598c-3.743 1.619-8.105-.109-9.725-3.852-.784-1.813-.815-3.823-.087-5.66.728-1.836 2.126-3.28 3.939-4.064l12.737-5.51c2.063 4.633 4.09 9.13 6.078 13.489zm-23.546-54.024c4.63 11.083 9.104 21.528 13.427 31.389l-12.666 5.479c-8.804 3.808-12.868 14.068-9.06 22.873 2.838 6.561 9.26 10.489 15.991 10.489 2.301 0 4.639-.459 6.881-1.429l13.154-5.69c2.934 6.318 5.782 12.327 8.544 18.049l-6.804 2.943c-4.265 1.845-7.556 5.24-9.268 9.56s-1.638 9.048.207 13.313 5.24 7.556 9.56 9.267c4.317 1.711 9.045 1.639 13.312-.207l8.629-3.733c10.662 20.349 19.61 35.541 26.782 46.727-12.465 11.241-17.36 28.021-13.366 44.002-5.758-2.526-11.62-5.201-17.535-7.991-11.364-13.767-16.114-30.604-20.694-46.906-9.162-32.606-18.629-66.318-82.08-66.318-17.748.279-31.343-5.006-39.11-15.485-12.36-16.452-9.537-42.269-7.083-55.108 10.786 8.706 22.692 14.943 35.602 16.904 22.051 3.351 44.084-6.11 65.575-28.128zm-149.35-86.583c1.905-3.208 5.133-5.209 8.856-5.49 4.096-.302 8.974 1.425 10.509 5.314 13.574 34.563 32.586 56.34 56.508 64.728 21.209 7.071 36.367 2.437 45.142.522 9.73-1.486 19.197 3.189 23.994 11.56-20.048 21.686-40.131 31.167-59.731 28.191-17.548-2.665-35.147-15.149-52.306-37.105-15.024-19.223-26.537-41.764-33.55-57.287-1.542-3.414-1.332-7.217.578-10.433zm-10.432 12.65c.218.641.459 1.277.741 1.9 9.889 21.891 26.748 53.61 49.272 75.601-2.577 10.474-9.506 45.859 7.661 68.744 9.739 13.169 26.215 19.795 47.165 19.506 55.823 0 63.153 26.064 72.414 59.023 3.362 11.966 6.81 24.204 12.809 35.701-41.73-20.777-83.196-44.954-105.015-58.024-8.407-5.037-18.248-6.041-27.105-3.326-20.199-17.991-41.243-32.403-59.891-45.162-6.054-4.143-11.854-8.115-17.34-12.001 23.811-34.736 20.775-66.373 13.773-87.116-5.554-16.453-14.24-28.52-19.045-34.375 8.313-7.281 16.848-14.353 24.561-20.471zm-66.258 67.063c1.547-8.009 16.587-23.914 34.214-39.921 4.349 5.378 12.247 16.465 17.174 31.263 8.834 26.527 4.613 52.642-12.52 77.696-27.531-20.451-44.581-39.465-38.868-69.038zm-22.251 89.958c-1.812 2.31-5.166 2.715-7.477.903-2.31-1.813-2.715-5.167-.902-7.478l.853-1.088 8.135 6.882zm33.046 25.929c-.878 1.119-2.139 1.829-3.552 2-1.412.17-2.806-.219-3.925-1.097s-1.829-2.139-2-3.552c-.17-1.412.219-2.806 1.097-3.925l.7-.893 8.418 6.543-.739.925zm33.046 25.928c-1.812 2.31-5.167 2.716-7.477.903-1.119-.878-1.829-2.14-2-3.552-.17-1.412.22-2.806 1.098-3.925l.819-1.044 8.42 6.544zm46.252-8.331c-3.433-3.299-8.126-4.962-12.864-4.569-4.748.396-9.102 2.817-11.944 6.644-2.104 2.832-6.138 3.492-9.033 1.496l-74.236-57.699c-10.071-7.831-14.977-16.504-14.998-26.518-.034-16.081 12.647-31.92 21.839-41.289.089 35.898 31.331 57.28 69.804 83.605 17.455 11.943 37.039 25.354 55.849 41.703-1.526 1.095-2.978 2.329-4.336 3.702-.54.545-1.126 1.253-1.938 2.233-.955 1.153-2.223 2.675-3.796 4.384-5.487-5.187-10.237-9.742-14.346-13.692zm-104.924 24.35c3.044-2.613 7.924-4.249 11.604-2.001 22.817 14.229 43.921 21.376 63.022 21.375 7.275 0 14.263-1.038 20.939-3.115 19.611-6.104 30.938-19.775 35.201-24.921.549-.663 1.118-1.349 1.347-1.58 6.926-7.001 17.312-8.888 26.155-5.029-3.162 29.363-13.628 48.952-31.137 58.25-15.676 8.326-37.247 8.8-64.115 1.408-23.524-6.471-46.208-17.699-61.095-25.979-3.274-1.821-5.373-4.999-5.758-8.719-.385-3.711 1.013-7.243 3.835-9.688zm-4.666 26.063c.558.384 1.13.751 1.728 1.084 20.996 11.677 53.45 27.087 84.649 31.305 4.176 9.944 19.71 42.479 47.133 50.612 15.608 4.629 32.078.566 48.962-12.073 45.178-33.82 66.66-17.218 93.857 3.8 18.111 13.997 38.036 29.396 66.968 29.396 9.339 0 19.628-1.623 31.085-5.397 12.242.614 28.326 4.579 39.047 19.22-56.485 22.943-164.178 19.017-230.635 9.375-33.499-4.861-64.856-3.642-92.522-2.566-7.339.285-14.371.555-21.098.707-1.6-42.085-22.904-65.67-40.895-78.145-14.27-9.896-28.439-14.402-35.787-16.237 2.331-10.802 4.965-21.569 7.507-31.08zm-9.536 40.898c6.698 1.723 19.65 5.914 32.43 14.854 22.91 16.026 35.096 39.507 36.284 69.836-34.297 0-59.323-5.098-72.371-32.241-3.535-7.352-.947-29.088 3.657-52.449zm32.127 137.93c-.038 1.422-.626 2.744-1.659 3.723-1.031.979-2.375 1.489-3.805 1.46-2.935-.078-5.261-2.529-5.183-5.471l.034-1.376c2.398.337 4.89.548 7.497.605l3.14.068-.025.99zm41.99 1.106c-.038 1.422-.626 2.744-1.658 3.723-1.033.979-2.385 1.484-3.806 1.46-2.935-.078-5.26-2.529-5.183-5.464l.03-1.134 10.646.232zm41.99 1.106c-.077 2.936-2.541 5.254-5.464 5.184-1.422-.038-2.745-.627-3.724-1.659s-1.497-2.383-1.46-3.805l.035-1.326 10.645.232-.032 1.375zm115.541-12.714c-.077 2.936-2.527 5.239-5.464 5.184-1.422-.038-2.745-.627-3.724-1.659s-1.497-2.383-1.461-3.752l.127-3.432c3.468.285 6.995.562 10.578.827l-.056 2.833zm41.989 1.107c-.038 1.422-.626 2.744-1.659 3.723-1.031.979-2.375 1.485-3.805 1.46-2.935-.078-5.261-2.529-5.184-5.464l.047-1.764c3.523.163 7.07.31 10.638.437l-.037 1.607zm41.99 1.107c-.038 1.422-.626 2.744-1.658 3.723s-2.39 1.477-3.806 1.46c-2.935-.078-5.261-2.529-5.184-5.464l.049-1.859c3.55-.002 7.1-.029 10.643-.081l-.045 2.221zm41.753 3.651c-.955 1.055-2.263 1.675-3.684 1.746-2.952.146-5.438-2.121-5.583-5.036l-.181-3.891c3.624-.251 7.172-.536 10.64-.855l.177 4.198c.071 1.421-.416 2.784-1.37 3.838zm37.182-4.394c-2.919.265-5.518-1.906-5.776-4.807l-.234-2.774c3.608-.64 7.103-1.328 10.482-2.067l.359 3.869c.261 2.925-1.906 5.517-4.83 5.778zm41.95-11.128c-2.623 1.234-5.754.136-7.037-2.448l-1.846-4.545c3.333-1.318 6.487-2.711 9.457-4.184l1.977 4.09c1.25 2.657.107 5.836-2.55 7.086zm26.195-54.848c-8.523 52.432-120.194 67.684-314.44 42.949-4.722-.599-9.479.859-13.051 4.004-3.576 3.149-5.626 7.689-5.626 12.456 0 3.527-2.844 6.463-6.359 6.588l-93.999-2.046c-12.754-.28-21.865-4.317-27.854-12.342-9.617-12.888-8.883-33.165-7.092-46.168 21.481 28.764 59.319 27.298 105.913 25.486 27.236-1.058 58.105-2.258 90.698 2.47 27.918 4.051 68.666 7.758 110.443 7.757 57.971 0 117.915-7.141 148.234-30.409 5.699-4.373 10.212-9.222 13.544-14.502-.073 1.251-.207 2.504-.41 3.758z" fill="#284268" style="fill: rgb(102, 0, 10);"></path></svg>