<!-- icon666.com - MILLIONS vector ICONS FREE --><svg viewBox="0 0 64 64" xmlns="http://www.w3.org/2000/svg"><g id="Layer_11" data-name="Layer 11"><path d="m24.148 42.473-5.931 3.3a8.2 8.2 0 0 0 -3.351 3.5 8.189 8.189 0 0 0 -.866 3.663v9.064h40v-9.064a8.189 8.189 0 0 0 -.866-3.667 8.2 8.2 0 0 0 -3.351-3.5l-7.8-4.335z" fill="#0059be" style="fill: rgb(189, 19, 0);"></path><path d="m54 52.936a8.2 8.2 0 0 0 -4.217-7.168l-7.8-4.335-17.832 1.04-5.931 3.3c-.03.017-.056.04-.086.057-.087.149-.188.289-.265.444a8.189 8.189 0 0 0 -.869 3.662 9.064 9.064 0 0 0 9.064 9.064h27.936z" fill="#006bdb" style="fill: rgb(219, 15, 0);"></path><path d="m53.134 49.269a8.2 8.2 0 0 0 -3.351-3.5l-7.8-4.335-17.832 1.04-5.931 3.3a8.173 8.173 0 0 0 -3.985 5.226h39.53a8.161 8.161 0 0 0 -.631-1.731z" fill="#ccc"></path><path d="m24.268 45.37a4.076 4.076 0 0 1 -1.875-1.922l-4.176 2.32c-.03.017-.056.04-.086.057-.087.149-.188.289-.265.444a8.189 8.189 0 0 0 -.866 3.667v1.064h12.641c.247-1.482.446-2.67.454-2.716z" fill="#fff"></path><path d="m44 44.537a4.4 4.4 0 0 1 -.314 1.634l-1.278 3.2a4.155 4.155 0 0 1 -1.198 1.629h12.555a8.173 8.173 0 0 0 -3.982-5.232l-6-3.333c-.043.143-.071.289-.127.426a4.28 4.28 0 0 1 .344 1.676z" fill="#fff"></path><path d="m29 33.997h10v7.05h-10z" fill="#fec079"></path><path d="m34 37a7.236 7.236 0 0 1 -2.52-.461 7.048 7.048 0 0 0 6.57 4.508h.95v-6.058a7.239 7.239 0 0 1 -5 2.011z" fill="#fed7a9"></path><path d="m32.391 47.2q-.237.885-.389 1.793l-1.002 6.007h7l.546-4.917.01-.083 2.783-7.117.126-.17a2.676 2.676 0 0 0 .535-1.605 2.677 2.677 0 0 0 -.784-1.892l-.509-.509a2.414 2.414 0 0 0 -1.707-.707 2.414 2.414 0 0 0 -1.707.707 18.887 18.887 0 0 0 -1.347 1.5z" fill="#fb2a3b"></path><path d="m26.759 4.129a5 5 0 0 0 -4.094-2.129 5 5 0 0 0 -4.986 4.654l-1.266 18.36a6.429 6.429 0 0 1 -6.413 5.986l.884 2.358a8.7 8.7 0 0 0 8.141 5.642 8.694 8.694 0 0 0 8.475-6.744z" fill="#4d4d4d"></path><path d="m23.579 2.093a4.968 4.968 0 0 0 -1.9 3.561l-1.266 18.36a6.43 6.43 0 0 1 -4.24 5.609 2.119 2.119 0 0 0 -1.289 2.735 8.7 8.7 0 0 0 8.174 5.642h.007a8.685 8.685 0 0 0 4.435-5.744l-.741-28.127a5 5 0 0 0 -3.18-2.036z" fill="#666"></path><path d="m30 6.683v-.683a2 2 0 0 0 -2-2 6 6 0 0 0 -6 6 2 2 0 0 0 1.6 1.959" fill="#0059be" style="fill: rgb(189, 19, 0);"></path><path d="m30 6a2 2 0 0 0 -1.278-1.86 6 6 0 0 0 -4.722 5.86 1.992 1.992 0 0 0 .447 1.259l5.553-4.576z" fill="#006bdb" style="fill: rgb(219, 15, 0);"></path><path d="m46 20.768v-2.768a12 12 0 0 0 -12-12 12 12 0 0 0 -12 12v2.768z" fill="#4d4d4d"></path><path d="m35 6.05a12 12 0 0 0 -11 11.95v2.768h22v-2.768a12 12 0 0 0 -11-11.95z" fill="#666"></path><path d="m43 18v6.515a13.242 13.242 0 0 1 -3.879 9.364 7.242 7.242 0 0 1 -5.121 2.121 7.242 7.242 0 0 1 -5.121-2.121 13.242 13.242 0 0 1 -3.879-9.364v-6.515l5-6 1.05 1.05a16.9 16.9 0 0 0 11.95 4.95z" fill="#fec079"></path><path d="m31.093 13.089a17.653 17.653 0 0 0 -4.093 11.304v.122a13.242 13.242 0 0 0 3.879 9.364 7.23 7.23 0 0 0 4.121 2.043 7.23 7.23 0 0 0 4.121-2.043 13.242 13.242 0 0 0 3.879-9.364v-6.515a16.9 16.9 0 0 1 -11.907-4.911z" fill="#fed7a9"></path><path d="m43 20h1a3 3 0 0 1 3 3 3 3 0 0 1 -3 3h-1.084" fill="#fec079"></path><path d="m25 20h-1a3 3 0 0 0 -3 3 3 3 0 0 0 3 3h1.084" fill="#fec079"></path><path d="m30 28a4 4 0 0 0 8 0z" fill="#c9212f"></path><path d="m29.554 37.256 11.05 5.1a2.4 2.4 0 0 1 1.396 2.181 2.4 2.4 0 0 1 -.172.893l-1.277 3.193a2.19 2.19 0 0 1 -2.034 1.377 2.188 2.188 0 0 1 -.979-.231l-12.376-6.188a2.1 2.1 0 0 1 -1.162-1.881 2.11 2.11 0 0 1 .42-1.262l1.746-2.327a2.78 2.78 0 0 1 2.224-1.111 2.769 2.769 0 0 1 1.164.256z" fill="#c9212f"></path><path d="m22 62h-2v-2.808l-1.929-4.82 1.858-.744 2 5a1.012 1.012 0 0 1 .071.372z" fill="#0053a5" style="fill: rgb(163, 24, 0);"></path><path d="m48 62h-2v-3a1.012 1.012 0 0 1 .071-.372l2-5 1.858.744-1.929 4.82z" fill="#0053a5" style="fill: rgb(163, 24, 0);"></path><path d="m40.6 42.356-11.05-5.1a2.769 2.769 0 0 0 -1.16-.256c-.045 0-.088.013-.132.015-.029.035-.065.061-.092.1l-1.746 2.324a2.1 2.1 0 0 0 .742 3.142l12.376 6.188a2.2 2.2 0 0 0 .8.211 2.224 2.224 0 0 0 .209-.357l1.277-3.193a2.4 2.4 0 0 0 -1.224-3.074z" fill="#fb2a3b"></path></g></svg>