<!-- icon666.com - MILLIONS vector ICONS FREE --><svg id="Layer_1" enable-background="new 0 0 32 32" viewBox="0 0 32 32" xmlns="http://www.w3.org/2000/svg"><g><path d="m8.61 15.38h4.79c1.09 0 1.98-.89 1.98-1.98v-4.79c0-1.09-.89-1.98-1.98-1.98h-4.79c-1.09 0-1.98.89-1.98 1.98v4.79c0 1.09.88 1.98 1.98 1.98zm-.98-6.77c0-.54.44-.98.98-.98h4.79c.54 0 .98.44.98.98v4.79c0 .54-.44.98-.98.98h-4.79c-.54 0-.98-.44-.98-.98z" fill="#000000" style="fill: rgb(224, 22, 0);"></path><path d="m18.5 15.38h4.79c1.09 0 1.98-.89 1.98-1.98v-4.79c0-1.09-.89-1.98-1.98-1.98h-4.79c-1.09 0-1.98.89-1.98 1.98v4.79c0 1.09.89 1.98 1.98 1.98zm-.98-6.77c0-.54.44-.98.98-.98h4.79c.54 0 .98.44.98.98v4.79c0 .54-.44.98-.98.98h-4.79c-.54 0-.98-.44-.98-.98z" fill="#000000" style="fill: rgb(224, 22, 0);"></path><path d="m13.45 16.63h-4.79c-1.09 0-1.98.89-1.98 1.98v4.79c0 1.09.89 1.98 1.98 1.98h4.79c1.09 0 1.98-.89 1.98-1.98v-4.79c0-1.1-.89-1.98-1.98-1.98zm.98 6.76c0 .54-.44.98-.98.98h-4.79c-.54 0-.98-.44-.98-.98v-4.79c0-.54.44-.98.98-.98h4.79c.54 0 .98.44.98.98z" fill="#000000" style="fill: rgb(224, 22, 0);"></path><path d="m23.34 16.63h-4.79c-1.09 0-1.98.89-1.98 1.98v4.79c0 1.09.89 1.98 1.98 1.98h4.79c1.09 0 1.98-.89 1.98-1.98v-4.79c0-1.1-.89-1.98-1.98-1.98zm.98 6.76c0 .54-.44.98-.98.98h-4.79c-.54 0-.98-.44-.98-.98v-4.79c0-.54.44-.98.98-.98h4.79c.54 0 .98.44.98.98z" fill="#000000" style="fill: rgb(224, 22, 0);"></path></g></svg>